<svg xmlns="http://www.w3.org/2000/svg" viewBox="0 0 512 512" role="img" aria-labelledby="title desc">
  <title id="title">PulseHub</title>
  <desc id="desc">PulseHub community logo mark with a pulse waveform.</desc>
  <defs>
<linearGradient id="pulsehubGradient" x1="0" y1="0" x2="1" y2="1">
  <stop offset="0%" stop-color="#3B82F6"/>
  <stop offset="48%" stop-color="#6366F1"/>
  <stop offset="100%" stop-color="#A855F7"/>
</linearGradient>

<linearGradient id="pulsehubWaveGradient" x1="0" y1="0" x2="1" y2="0">
  <stop offset="0%" stop-color="#6366F1"/>
  <stop offset="100%" stop-color="#A855F7"/>
</linearGradient></defs>
  
  <g opacity="0.12"><path d="
M 105 405
L 105 172
C 105 103 147 64 216 64
L 326 64
C 401 64 448 108 448 178
L 448 246
C 448 318 402 362 326 362
L 218 362
L 105 431
Z
" fill="url(#pulsehubGradient)"/>
  <path d="
M 174 330
L 174 181
C 174 151 191 132 221 132
L 317 132
C 352 132 379 151 379 184
L 379 241
C 379 273 353 294 317 294
L 211 294
Z
" fill="#0B0E14"/>
  <path d="
M 160 222
L 197 222
C 207 222 211 215 216 205
L 230 174
C 234 165 242 165 246 176
L 266 263
C 269 275 278 276 284 264
L 302 222
L 342 222
" fill="none" stroke="url(#pulsehubWaveGradient)" stroke-width="27" stroke-linecap="round" stroke-linejoin="round"/>
</g></svg>